<?xml version="1.0" encoding="UTF-8"?>
<svg id="Layer_1" data-name="Layer 1" xmlns="http://www.w3.org/2000/svg" viewBox="0 0 236.81 118.01">
  <defs>
    <style>
      .cls-1 {
        letter-spacing: -.01em;
      }

      .cls-2 {
        letter-spacing: -.02em;
      }

      .cls-3 {
        letter-spacing: 0em;
      }

      .cls-4 {
        font-family: AcuminConcept-Semibold, 'Acumin Variable Concept';
        font-variation-settings: 'wght' 600, 'wdth' 100, 'slnt' 0;
        font-weight: 600;
      }

      .cls-4, .cls-5, .cls-6, .cls-7, .cls-8, .cls-9 {
        fill: #231f20;
      }

      .cls-4, .cls-6, .cls-9 {
        font-size: 12px;
      }

      .cls-5 {
        letter-spacing: .01em;
      }

      .cls-5, .cls-7, .cls-8 {
        font-family: AcuminConcept-Italic, 'Acumin Variable Concept';
        font-size: 9px;
        font-style: italic;
        font-variation-settings: 'wght' 400, 'wdth' 100, 'slnt' 12;
      }

      .cls-10 {
        letter-spacing: -.02em;
      }

      .cls-11 {
        opacity: .5;
        stroke-width: 1.5px;
      }

      .cls-11, .cls-12, .cls-13, .cls-14, .cls-15 {
        stroke-miterlimit: 10;
      }

      .cls-11, .cls-12, .cls-15 {
        fill: none;
      }

      .cls-11, .cls-13 {
        stroke: #27aae1;
      }

      .cls-16 {
        letter-spacing: 0em;
      }

      .cls-17, .cls-13 {
        fill: #fff;
      }

      .cls-6 {
        font-family: AcuminConcept-Bold, 'Acumin Variable Concept';
        font-variation-settings: 'wght' 700, 'wdth' 100, 'slnt' 0;
        font-weight: 700;
      }

      .cls-7 {
        letter-spacing: 0em;
      }

      .cls-18 {
        letter-spacing: -.03em;
      }

      .cls-12 {
        stroke: #231f20;
        stroke-linecap: round;
      }

      .cls-14 {
        fill: #d1d3d4;
        stroke: #d1d3d4;
      }

      .cls-19 {
        letter-spacing: .02em;
      }

      .cls-20 {
        letter-spacing: .03em;
      }

      .cls-15 {
        stroke: #6d6e71;
      }

      .cls-21 {
        letter-spacing: -.01em;
      }

      .cls-22 {
        letter-spacing: 0em;
      }

      .cls-23 {
        letter-spacing: .02em;
      }

      .cls-9 {
        font-family: MyriadPro-Regular, 'Myriad Pro';
      }

      .cls-24 {
        letter-spacing: -.01em;
      }

      .cls-25 {
        fill: #ed1c24;
        opacity: .6;
      }

      .cls-26 {
        letter-spacing: 0em;
      }
    </style>
  </defs>
  <rect class="cls-17" width="236.81" height="118.01"/>
  <path class="cls-25" d="m178.64,62c6.87-13.12,7.2-18.26,10.44-21.37,2.62-1.86,5.69,10.69,5.69,10.69"/>
  <path class="cls-12" d="m150.23,46.23c11.39,54.7,25.08,23.31,37.65-3.93,9.32-20.19,19.96,131.49,41.1-23.45"/>
  <polyline class="cls-15" points="229.41 95.25 150.23 95.25 150.23 16.85"/>
  <path class="cls-12" d="m27.96,46.23c22.24,102.4,79.18,11.63,79.18-29.39"/>
  <polyline class="cls-15" points="107.14 95.25 27.96 95.25 27.96 16.85"/>
  <line class="cls-14" x1="148.23" y1="28.97" x2="227.06" y2="28.97"/>
  <line class="cls-14" x1="227.06" y1="28.37" x2="227.06" y2="97.25"/>
  <line class="cls-14" x1="148.23" y1="73.66" x2="159.74" y2="73.66"/>
  <line class="cls-14" x1="159.74" y1="73.66" x2="159.74" y2="97.25"/>
  <line class="cls-14" x1="25.96" y1="28.37" x2="106.19" y2="28.37"/>
  <line class="cls-14" x1="106.19" y1="28.37" x2="106.19" y2="97.25"/>
  <line class="cls-14" x1="25.96" y1="73.66" x2="36.14" y2="73.66"/>
  <line class="cls-14" x1="36.14" y1="73.66" x2="36.14" y2="97.25"/>
  <line class="cls-11" x1="36.14" y1="73.66" x2="105.89" y2="28.57"/>
  <line class="cls-11" x1="159.74" y1="73.66" x2="227.06" y2="28.97"/>
  <text class="cls-4" transform="translate(11.86 64.23) rotate(-90)"><tspan class="cls-2" x="0" y="0">f</tspan><tspan class="cls-20" x="3.5" y="0">(</tspan><tspan class="cls-23" x="8.24" y="0">x</tspan><tspan x="14.26" y="0">)</tspan></text>
  <text class="cls-4" transform="translate(134.82 64.23) rotate(-90)"><tspan class="cls-2" x="0" y="0">f</tspan><tspan class="cls-20" x="3.5" y="0">(</tspan><tspan class="cls-23" x="8.24" y="0">x</tspan><tspan x="14.26" y="0">)</tspan></text>
  <circle class="cls-13" cx="36.14" cy="73.66" r="2.1"/>
  <circle class="cls-13" cx="106.19" cy="28.37" r="2.1"/>
  <circle class="cls-13" cx="159.74" cy="73.66" r="2.1"/>
  <circle class="cls-13" cx="227.06" cy="28.97" r="2.1"/>
  <text class="cls-4" transform="translate(61.65 115.02)"><tspan x="0" y="0">X</tspan></text>
  <text class="cls-6" transform="translate(187.19 115.02)"><tspan x="0" y="0">X</tspan></text>
  <text class="cls-9" transform="translate(47.24 12.68)"><tspan class="cls-21" x="0" y="0">C</tspan><tspan x="6.83" y="0">o</tspan><tspan class="cls-24" x="13.42" y="0">n</tspan><tspan class="cls-1" x="19.92" y="0">v</tspan><tspan class="cls-3" x="25.57" y="0">e</tspan><tspan x="31.55" y="0">x</tspan></text>
  <text class="cls-9" transform="translate(160.86 12.81)"><tspan x="0" y="0">Non</tspan><tspan class="cls-19" x="21.14" y="0">-</tspan><tspan class="cls-16" x="25.04" y="0">c</tspan><tspan x="30.35" y="0">o</tspan><tspan class="cls-24" x="36.94" y="0">n</tspan><tspan class="cls-1" x="43.44" y="0">v</tspan><tspan class="cls-3" x="49.09" y="0">e</tspan><tspan x="55.07" y="0">x</tspan></text>
  <text class="cls-7" transform="translate(34.04 104.22)"><tspan x="0" y="0">a</tspan></text>
  <text class="cls-5" transform="translate(103.1 104.22)"><tspan x="0" y="0">b</tspan></text>
  <text class="cls-8" transform="translate(23.93 80.12) rotate(-90)"><tspan x="0" y="0">f</tspan><tspan class="cls-18" x="2.49" y="0">(</tspan><tspan class="cls-26" x="5.14" y="0">a)</tspan></text>
  <text class="cls-8" transform="translate(23.82 34.92) rotate(-90)"><tspan x="0" y="0">f</tspan><tspan class="cls-22" x="2.49" y="0">(</tspan><tspan class="cls-10" x="5.47" y="0">b</tspan><tspan x="10.33" y="0">)</tspan></text>
  <text class="cls-7" transform="translate(157.18 105.22)"><tspan x="0" y="0">a</tspan></text>
  <text class="cls-5" transform="translate(224.27 105.22)"><tspan x="0" y="0">b</tspan></text>
  <text class="cls-8" transform="translate(146.2 80.12) rotate(-90)"><tspan x="0" y="0">f</tspan><tspan class="cls-18" x="2.49" y="0">(</tspan><tspan class="cls-26" x="5.14" y="0">a)</tspan></text>
  <text class="cls-8" transform="translate(146.39 34.92) rotate(-90)"><tspan x="0" y="0">f</tspan><tspan class="cls-22" x="2.49" y="0">(</tspan><tspan class="cls-10" x="5.47" y="0">b</tspan><tspan x="10.33" y="0">)</tspan></text>
</svg>